<svg xmlns="http://www.w3.org/2000/svg" width="100" height="100" id="loader"><defs><filter id="shadow"><feFlood flood-opacity="1" flood-color="#3388cc" result="flood"/><feComposite in="flood" in2="SourceGraphic" operator="in" result="composite1"/><feGaussianBlur in="composite1" stdDeviation="5" result="blur"/><feOffset dx="0" dy="0" result="offset"/><feComposite in="SourceGraphic" in2="offset" operator="over" result="composite2"/></filter></defs><path d="m78.3 78.3q7.7-7.7 10.4-18 2.7-10.3 0-20.6-2.7-10.3-10.4-18-5.7-5.7-13.2-8.7-7.5-3-15.1-3-7.6 0-15.1 3-7.5 3-13.2 8.7-7.7 7.7-10.4 18-2.7 10.3 0 20.6 2.7 10.3 10.4 18 5.7 5.7 13.2 8.7 7.5 3 15.1 3 7.6 0 15.1-3 7.5-3 13.2-8.7zm-36.8 3.8q-0.3 0-0.6-0.1-8.3-2.3-14.4-8.4-6.1-6.1-8.4-14.4-0.3-0.8 0.2-1.6 0.4-0.8 1.3-1l2.5-0.6q0.2-0.1 0.5-0.1 1.6 0 2 1.5 1.9 6.6 6.8 11.4 4.8 4.9 11.4 6.8 0.8 0.2 1.2 0.9 0.4 0.7 0.2 1.6l-0.6 2.4q-0.2 0.9-1 1.3-0.5 0.3-1 0.3zm2.5-10q-0.3 0-0.6-0.1-5.5-1.7-9.5-5.7-4-4-5.7-9.5-0.3-0.9 0.1-1.7 0.4-0.8 1.3-1l2.3-0.6q0.3-0.1 0.6-0.1 1.5 0 1.9 1.4 1.2 4 4 6.8 2.8 2.8 6.7 4 0.8 0.2 1.2 0.9 0.4 0.7 0.2 1.5l-0.6 2.4q-0.2 0.8-1 1.3-0.5 0.3-1 0.3zm14.3-13.8q-3.4 3.4-8.2 3.4-4.8 0-8.2-3.4-3.4-3.4-3.4-8.2 0-4.8 3.4-8.2 3.4-3.4 8.2-3.4 4.8 0 8.2 3.4 3.4 3.4 3.4 8.2 0 4.8-3.4 8.2zm9.3-11.6q-1.5 0-1.9-1.4-1.2-4-4-6.8-2.8-2.8-6.8-4-0.8-0.3-1.2-1-0.4-0.7-0.2-1.5l0.6-2.4q0.2-0.8 1-1.3 0.5-0.3 1-0.3 0.3 0 0.6 0.1 5.5 1.7 9.5 5.7 4 4 5.7 9.5 0.3 0.9-0.2 1.7-0.4 0.8-1.3 1l-2.3 0.6q-0.3 0.1-0.6 0.1zm10-2.5q-1.6 0-2-1.5-1.9-6.6-6.8-11.4-4.8-4.9-11.4-6.8-0.8-0.2-1.2-0.9-0.4-0.7-0.2-1.6l0.6-2.4q0.2-0.9 1-1.3 0.5-0.3 1-0.3 0.3 0 0.6 0.1 8.3 2.3 14.4 8.4 6.1 6.1 8.4 14.4 0.3 0.8-0.2 1.6-0.4 0.8-1.3 1l-2.5 0.6q-0.2 0.1-0.5 0.1z" style="fill:#f3f8fc;filter:url(#shadow)"/></svg>